<svg aria-hidden="true" style="position: absolute; width: 0; height: 0; overflow: hidden;" version="1.1" xmlns="http://www.w3.org/2000/svg" xmlns:xlink="http://www.w3.org/1999/xlink">
<defs>
<symbol id="icon-codewars" viewBox="0 0 32 32">
<path fill="#ad2c27" style="fill: var(--color1, #ad2c27)" d="M1.013 16.267l-0.107-0.053c-0.24-0.133-0.427-0.333-0.56-0.587-0.187-0.347-0.267-0.667-0.267-1l0.027-0.173c0-0.267 0.067-0.507 0.187-0.733l0.107-0.2c0.053-0.107 0.133-0.2 0.2-0.293 0.080-0.093 0.093-0.213 0.067-0.32l-0.067-0.213c-0.080-0.267-0.133-0.533-0.133-0.8l-0.040-0.16c0-0.293 0.080-0.587 0.267-0.8l0.133-0.173c0.093-0.133 0.24-0.213 0.4-0.267 0.133-0.040 0.227-0.173 0.24-0.333l0.027-0.453c0-0.36 0.173-0.693 0.44-0.933l0.32-0.24c0.067-0.067 0.133-0.133 0.187-0.24 0.067-0.080 0.080-0.187 0.067-0.267-0.027-0.133 0-0.173 0.067-0.187 0.213 0.080 0.347 0.053 0.44-0.053l0.173-0.227 0.48-0.533c0.133-0.133 0.187-0.373 0.107-0.56l-0.16-0.347c-0.027-0.080 0-0.173 0.067-0.2 0.173 0 0.293 0.067 0.347 0.173l0.053 0.093c0.080 0.16 0.267 0.24 0.4 0.173 0.293-0.107 0.533-0.133 0.76-0.133h0.427c0.293 0 0.533-0.2 0.587-0.507 0.053-0.373 0.187-0.667 0.373-0.867 0.2-0.227 0.427-0.4 0.693-0.533 0.347-0.187 0.56-0.453 0.627-0.8 0.093-0.427 0.32-0.733 0.627-0.933l1.013-0.573 0.293-0.173c0.173-0.107 0.333-0.24 0.467-0.4l0.267-0.32c0.133-0.133 0.267-0.227 0.427-0.267 0.133-0.040 0.32-0.067 0.48-0.053l0.533 0.040c0.267 0 0.48 0.067 0.693 0.16l0.133 0.067c0.133 0.053 0.267 0.027 0.333-0.067l0.12-0.067 0.573-0.6c0.133-0.133 0.293-0.187 0.467-0.16s0.347 0.093 0.507 0.173c0.24 0.133 0.44 0.187 0.667 0.187h0.133c0.293 0 0.587 0.040 0.88 0.107l0.2 0.053c0.2 0.053 0.4-0.027 0.533-0.187 0.040-0.067 0.133-0.080 0.187-0.027 0.040 0.027 0.053 0.053 0.067 0.093 0.027 0.267 0.187 0.467 0.4 0.533l0.213 0.067c0.227 0.067 0.427 0.213 0.56 0.4 0.133 0.2 0.293 0.4 0.48 0.533l0.133 0.133c0.133 0.133 0.32 0.187 0.507 0.173h0.787c0.32 0 0.627 0.053 0.933 0.187 0.293 0.133 0.6 0.16 0.88 0.053 0.293-0.093 0.6-0.133 0.907-0.093l0.573 0.093c0.267 0.027 0.533 0.16 0.693 0.36l0.067 0.067c0.133 0.133 0.267 0.307 0.4 0.493 0.080 0.173 0.267 0.267 0.453 0.267h0.827c0.2 0 0.4 0.040 0.56 0.133 0.173 0.133 0.32 0.267 0.453 0.4l0.133 0.173c0.16 0.187 0.24 0.44 0.227 0.707 0 0.213 0.16 0.4 0.373 0.4l0.267 0.027c0.187 0 0.347 0.133 0.44 0.307l0.133 0.267 0.347 0.773c0.053 0.133 0.067 0.267 0.053 0.373 0 0.133 0.040 0.24 0.133 0.293l0.133 0.093c0.173 0.133 0.267 0.333 0.24 0.56l-0.093 0.627-0.027 0.267c-0.027 0.133 0.040 0.307 0.16 0.4 0.2 0.133 0.293 0.307 0.307 0.507v0.267c0 0.133-0.027 0.293-0.133 0.4-0.080 0.107-0.133 0.24-0.133 0.4l0.040 0.307c0 0.213 0.133 0.4 0.267 0.533 0.187 0.133 0.293 0.347 0.32 0.56 0.053 0.333 0.067 0.6 0.067 0.867v0.307c0 0.107 0 0.213 0.040 0.32 0.027 0.093 0.093 0.187 0.173 0.24l0.267 0.2c0.267 0.173 0.453 0.4 0.56 0.707 0.133 0.293 0.173 0.6 0.173 0.907v0.107c0 0.24-0.027 0.493-0.107 0.72-0.067 0.24-0.053 0.467 0.040 0.667 0.107 0.187 0.173 0.4 0.2 0.627 0.053 0.267 0.027 0.533-0.067 0.747l-0.027 0.093c-0.067 0.16-0.173 0.307-0.307 0.427-0.133 0.133-0.267 0.213-0.347 0.307-0.080 0.080-0.133 0.213-0.093 0.333l0.040 0.187c0.067 0.267 0.067 0.533 0 0.773v0.107c-0.053 0.2-0.133 0.373-0.213 0.533-0.093 0.173-0.227 0.307-0.4 0.4l-0.2 0.133c-0.093 0.053-0.16 0.173-0.16 0.293 0 0.133-0.053 0.267-0.133 0.347l-0.2 0.267c-0.133 0.173-0.307 0.32-0.493 0.4-0.187 0.133-0.347 0.267-0.467 0.4-0.133 0.16-0.24 0.347-0.293 0.533-0.053 0.24-0.24 0.373-0.44 0.373h-0.72c-0.187 0-0.36 0.133-0.44 0.293-0.093 0.213-0.187 0.36-0.307 0.493-0.133 0.133-0.213 0.293-0.267 0.48-0.027 0.16-0.16 0.267-0.293 0.213-0.173-0.080-0.347 0-0.427 0.133-0.16 0.267-0.32 0.467-0.493 0.64l-0.093 0.080c-0.173 0.133-0.4 0.24-0.6 0.24-0.24 0-0.36 0.107-0.4 0.267-0.040 0.133-0.067 0.307-0.080 0.453-0.027 0.16-0.080 0.307-0.133 0.44l-0.067 0.080c-0.133 0.2-0.24 0.4-0.373 0.573l-0.053 0.080c-0.173 0.227-0.4 0.4-0.667 0.467-0.32 0.107-0.6 0.133-0.88 0.133h-0.187c-0.133 0-0.267 0.080-0.36 0.213l-0.080 0.133-0.080 0.16-0.173 0.293c-0.133 0.24-0.333 0.4-0.6 0.48-0.267 0.067-0.573 0.093-0.853 0.080l-0.213-0.027c-0.187 0-0.36-0.053-0.533-0.133-0.133-0.053-0.32 0-0.4 0.133-0.133 0.187-0.293 0.293-0.467 0.347l-0.4 0.133c-0.267 0.067-0.56 0.067-0.84 0l-0.213-0.067c-0.133 0-0.267-0.067-0.373-0.133-0.133-0.067-0.267-0.093-0.4-0.080l-0.173 0.027c-0.267 0.027-0.507 0-0.747-0.067l-0.36-0.080c-0.16-0.053-0.307-0.16-0.4-0.307-0.067-0.133-0.213-0.24-0.4-0.267h-0.427c-0.267-0.040-0.507-0.133-0.667-0.333l-0.533-0.507-0.187-0.16-0.293-0.213-0.173-0.133c-0.2-0.133-0.44-0.24-0.693-0.267l-0.8-0.133c-0.080 0-0.133-0.027-0.213-0.040l-0.307-0.067c-0.133-0.027-0.267-0.133-0.36-0.267-0.080-0.133-0.227-0.187-0.36-0.133-0.267 0.107-0.48 0.133-0.693 0.173h-0.187c-0.347 0.027-0.667-0.027-0.987-0.173-0.32-0.133-0.533-0.333-0.733-0.587-0.16-0.227-0.4-0.4-0.693-0.453l-0.373-0.080c-0.267-0.053-0.533-0.16-0.773-0.32-0.267-0.187-0.4-0.36-0.507-0.573-0.107-0.2-0.173-0.427-0.187-0.667v-0.107c-0.027-0.267-0.213-0.507-0.467-0.573-0.307-0.093-0.533-0.227-0.733-0.4-0.187-0.173-0.293-0.427-0.293-0.693l0.027-0.587c0-0.227-0.067-0.427-0.227-0.573-0.16-0.16-0.267-0.36-0.267-0.573l-0.040-0.48c-0.027-0.347-0.093-0.693-0.173-1.040-0.080-0.307 0.040-0.613 0.293-0.76l0.093-0.067c0.133-0.093 0.187-0.267 0.107-0.427l-0.107-0.133c-0.133-0.133-0.267-0.227-0.4-0.267-0.107-0.027-0.133-0.133-0.133-0.2l0.133-0.16c0.080-0.093 0.067-0.24 0-0.32-0.107-0.107-0.16-0.24-0.173-0.373l-0.027-0.933c0-0.187 0.027-0.373 0.080-0.56 0.053-0.16 0-0.347-0.16-0.413zM14.213 14.507c0.093-0.093 0.080-0.267 0-0.333-0.133-0.107-0.227-0.227-0.307-0.36l-0.133-0.213c-0.093-0.173-0.213-0.32-0.347-0.453l-0.027-0.027c-0.133-0.107-0.227-0.24-0.307-0.4-0.067-0.133-0.067-0.267 0-0.4l0.080-0.133c0.080-0.133 0.133-0.32 0.133-0.48v-0.053c0-0.133-0.053-0.267-0.133-0.4-0.053-0.107-0.107-0.24-0.133-0.373v-0.080c-0.040-0.16 0-0.333 0.107-0.467 0.107-0.173 0.187-0.333 0.227-0.533v-0.027c0.053-0.133 0.027-0.307-0.053-0.44s-0.107-0.267-0.053-0.427l0.093-0.267c0.080-0.24 0.2-0.453 0.36-0.64l0.187-0.2 0.133-0.16 0.080-0.080c0.080-0.080 0.093-0.213 0.027-0.32-0.067-0.133-0.107-0.267-0.080-0.4l0.027-0.187c0.040-0.267 0.133-0.533 0.307-0.747l0.053-0.053c0.2-0.267 0.453-0.44 0.747-0.533l0.36-0.133c0.16-0.053 0.267-0.227 0.267-0.4 0-0.213 0.067-0.4 0.187-0.573l0.067-0.067c0.133-0.227 0.293-0.453 0.4-0.693l0.093-0.173c0.027-0.040 0.040-0.093 0.040-0.133 0-0.227-0.133-0.427-0.347-0.44l-0.587-0.040c-0.333-0.027-0.667 0-0.987 0l-1.133 0.133c-0.173 0-0.307 0.133-0.32 0.32 0 0.187-0.133 0.347-0.293 0.4l-0.48 0.133-0.133 0.040-0.4 0.133c-0.293 0.093-0.533 0.307-0.667 0.6l-0.107 0.173c-0.133 0.293-0.36 0.533-0.64 0.707-0.267 0.173-0.4 0.453-0.427 0.773v0.133c-0.027 0.267-0.107 0.533-0.267 0.72l-0.067 0.107c-0.107 0.133-0.133 0.307-0.067 0.453 0.067 0.16 0.107 0.333 0.093 0.507v0.707c0 0.187-0.133 0.347-0.267 0.4-0.187 0.067-0.307 0.213-0.36 0.4l-0.067 0.267c-0.053 0.267 0.040 0.533 0.267 0.693 0.213 0.16 0.347 0.4 0.4 0.693v0.24c0.040 0.267 0.187 0.533 0.427 0.667 0.24 0.16 0.427 0.4 0.533 0.667l0.067 0.213c0.107 0.293 0.347 0.467 0.613 0.493h0.080c0.24 0 0.453 0.133 0.587 0.347s0.347 0.36 0.587 0.4l0.373 0.107c0.227 0.067 0.44 0.187 0.613 0.36l0.027 0.027c0.133 0.107 0.347 0.093 0.467-0.053zM15.733 13.28c0.133 0.080 0.267 0.040 0.32-0.080l0.040-0.067c0.093-0.187 0.213-0.373 0.347-0.533l0.267-0.4c0.040 0 0.053-0.027 0.067-0.053l0.32-0.427c0.133-0.133 0.293-0.227 0.48-0.227 0.173 0 0.32-0.093 0.4-0.267 0.053-0.187 0.133-0.36 0.293-0.507l0.067-0.080c0.133-0.133 0.267-0.2 0.4-0.267 0.173-0.027 0.333-0.053 0.493-0.053h0.4c0.16 0 0.293-0.067 0.373-0.2s0.2-0.227 0.333-0.293l0.133-0.053c0.213-0.093 0.453-0.16 0.693-0.187l0.267-0.027c0.16 0 0.333 0 0.493 0.093 0.133 0.093 0.307 0.080 0.44-0.027l0.093-0.053c0.2-0.133 0.427-0.24 0.667-0.267h0.027c0.267-0.053 0.507-0.053 0.773-0.040h0.133c0.267 0.040 0.493 0.133 0.667 0.333l0.040 0.053c0.133 0.133 0.347 0.24 0.533 0.24h0.227c0.067 0 0.133-0.027 0.173-0.093 0.040-0.040 0.107-0.080 0.173-0.080h0.133c0.187 0 0.36 0.053 0.533 0.107l0.227 0.093c0.213 0.067 0.44 0.133 0.667 0.16h0.16c0.107 0 0.173-0.067 0.173-0.16 0-0.133-0.027-0.267-0.093-0.373l-0.093-0.213c-0.107-0.173-0.187-0.36-0.267-0.533l-0.027-0.067c-0.067-0.133-0.067-0.267 0-0.4v-0.067c0.027-0.107-0.027-0.227-0.133-0.267h-0.107c-0.213-0.067-0.4-0.187-0.533-0.36l-0.133-0.133c-0.133-0.133-0.213-0.333-0.267-0.533-0.067-0.173-0.213-0.307-0.4-0.307h-0.56c-0.2-0.027-0.373-0.133-0.493-0.293l-0.053-0.067c-0.093-0.133-0.173-0.293-0.227-0.453-0.067-0.133-0.213-0.213-0.347-0.173l-0.16 0.053c-0.267 0.093-0.533 0.133-0.8 0.107l-0.213-0.027c-0.227 0-0.44-0.093-0.613-0.227l-0.133-0.093c-0.107-0.080-0.213-0.133-0.333-0.187-0.133-0.053-0.24-0.027-0.32 0.067l-0.067 0.080c-0.133 0.133-0.32 0.24-0.507 0.267l-0.72 0.040c-0.133 0-0.267 0.067-0.36 0.16-0.107 0.093-0.227 0.16-0.36 0.187h-0.027c-0.133 0-0.267 0.093-0.4 0.187v0.027c-0.133 0.133-0.307 0.2-0.48 0.2l-0.053 0.027c-0.16 0-0.32 0-0.48 0.040h-0.16c-0.227 0.040-0.4 0.227-0.453 0.467l-0.053 0.307c-0.040 0.213-0.133 0.4-0.267 0.573-0.133 0.16-0.293 0.267-0.493 0.267h-0.227c-0.133 0.027-0.267 0.173-0.24 0.333 0.027 0.227 0 0.427-0.040 0.627l-0.053 0.227c-0.053 0.2-0.187 0.36-0.36 0.427l-0.080 0.040h-0.027c-0.080 0.053-0.133 0.173-0.067 0.267 0.080 0.133 0.107 0.267 0.093 0.4l-0.040 0.427c0 0.16-0.067 0.307-0.133 0.44-0.080 0.133-0.080 0.267-0.027 0.4l0.133 0.293c0.067 0.133 0.080 0.267 0.040 0.427-0.040 0.133-0.067 0.267-0.053 0.4 0 0.133 0.080 0.267 0.187 0.32l0.027 0.027zM26.267 22.92c0.133 0.133 0.333 0.187 0.493 0.080l0.267-0.173c0.133-0.093 0.24-0.227 0.293-0.4v-0.027l0.133-0.4 0.080-0.133 0.053-0.133 0.053-0.093c0.053-0.107 0.133-0.187 0.267-0.227l0.053-0.027c0.107-0.027 0.173-0.133 0.173-0.24 0-0.133 0.067-0.24 0.133-0.333l0.107-0.093 0.267-0.347v-0.027c0.080-0.107 0.133-0.227 0.16-0.36s0-0.267-0.053-0.4l-0.027-0.053c-0.053-0.133-0.080-0.227-0.093-0.347l-0.040-0.373-0.040-0.4c0-0.133 0.053-0.267 0.133-0.4 0.093-0.107 0.16-0.24 0.213-0.373v-0.053l0.027-0.027c0.027-0.133-0.040-0.267-0.16-0.267-0.133-0.067-0.267-0.173-0.307-0.333l-0.040-0.080c-0.067-0.24-0.107-0.48-0.107-0.72l0.027-0.667v-0.040c0-0.227-0.187-0.4-0.4-0.4h-0.027c-0.267 0-0.48-0.080-0.667-0.267l-0.107-0.133-0.267-0.307-0.347-0.4c-0.133-0.187-0.267-0.347-0.44-0.507-0.133-0.133-0.333-0.267-0.533-0.293l-0.267-0.040c-0.133-0.027-0.307-0.093-0.453-0.187-0.107-0.080-0.267-0.053-0.373 0.053l-0.173 0.187-0.080 0.053c-0.093 0.027-0.187-0.027-0.227-0.133-0.053-0.16-0.053-0.347 0.027-0.507v-0.080c0-0.093-0.080-0.16-0.16-0.133h-0.213c-0.24 0-0.48-0.027-0.707-0.133l-0.133-0.053c-0.133-0.067-0.293-0.107-0.44-0.107-0.133 0-0.267 0.027-0.4 0.107l-0.053 0.040c-0.16 0.107-0.347 0.16-0.533 0.173h-0.44c-0.2 0-0.4 0.067-0.533 0.173-0.173 0.107-0.36 0.173-0.56 0.213l-0.36 0.053c-0.16 0.040-0.333 0.107-0.48 0.227-0.133 0.133-0.32 0.213-0.493 0.267l-0.067 0.027c-0.213 0.067-0.4 0.2-0.533 0.4l-0.16 0.16c-0.093 0.133-0.093 0.293 0 0.427 0.080 0.133 0.24 0.173 0.4 0.133l0.2-0.080c0.107-0.040 0.227 0 0.32 0.053 0.080 0.067 0.2 0.107 0.32 0.093l0.333-0.040c0.187 0 0.373 0 0.56 0.053 0.2 0.067 0.373 0.133 0.533 0.267s0.333 0.187 0.533 0.213 0.4 0.067 0.587 0.133l0.133 0.027c0.133 0.040 0.24 0.133 0.32 0.267 0.067 0.107 0.133 0.267 0.133 0.4v0.040c0 0.16 0.133 0.267 0.267 0.267h0.080c0.213 0 0.44 0.027 0.667 0.093l0.093 0.040c0.133 0.053 0.267 0.133 0.36 0.267 0.107 0.133 0.173 0.267 0.213 0.4l0.040 0.187c0.040 0.2 0.053 0.4 0.053 0.613v0.067c0 0.133 0.093 0.267 0.24 0.32 0.133 0.027 0.293 0.080 0.44 0.16l0.067 0.027c0.173 0.107 0.347 0.24 0.48 0.4l0.067 0.093c0.173 0.2 0.267 0.453 0.267 0.707v0.093c0 0.2-0.040 0.4-0.107 0.587-0.053 0.16 0 0.347 0.173 0.4l0.093 0.067c0.2 0.080 0.373 0.227 0.507 0.4 0.133 0.2 0.187 0.427 0.187 0.667v0.4c-0.027 0.133-0.067 0.24-0.133 0.333s-0.067 0.227 0 0.32zM17.733 16.093h-0.027c-0.053 0-0.080 0.067-0.067 0.133l0.053 0.267c0.053 0.213 0.080 0.427 0.107 0.64s0.133 0.4 0.293 0.533h0.053c0.2 0.16 0.32 0.4 0.333 0.64v0.667c-0.027 0.133 0 0.267 0.080 0.373l0.067 0.067c0.133 0.16 0.187 0.347 0.2 0.533l0.040 0.733c0 0.173-0.107 0.32-0.267 0.347l-0.133 0.027c-0.093 0-0.133 0.107-0.133 0.2 0 0.107 0.040 0.227 0.080 0.333v0.027c0.040 0.133 0.053 0.267 0.040 0.4l-0.053 0.36c-0.053 0.267-0.133 0.507-0.267 0.747l-0.093 0.16c-0.067 0.133-0.16 0.213-0.267 0.267-0.133 0.053-0.227 0.16-0.267 0.293l-0.107 0.48c-0.067 0.267-0.187 0.533-0.347 0.8h-0.027c-0.16 0.213-0.36 0.4-0.6 0.533l-0.16 0.107-0.4 0.2c-0.133 0.053-0.213 0.173-0.24 0.32l-0.067 0.44c-0.040 0.267-0.133 0.493-0.32 0.667l-0.173 0.2-0.2 0.2-0.2 0.213c-0.16 0.187-0.4 0.267-0.667 0.227l-0.48-0.093-0.44-0.053h-0.12c-0.053 0.053-0.067 0.133-0.027 0.213 0.093 0.16 0.24 0.267 0.4 0.267l0.293 0.053c0.133 0 0.293 0.067 0.427 0.133 0.133 0.093 0.267 0.16 0.427 0.2h0.027c0.173 0.067 0.36 0.080 0.533 0.067l0.2-0.027c0.227-0.027 0.44 0 0.627 0.080l0.16 0.053c0.067 0.027 0.173 0 0.24-0.067 0.080-0.080 0.16-0.133 0.267-0.173l0.107-0.027c0.173-0.053 0.347-0.080 0.533-0.080h0.107c0.16 0 0.307 0.027 0.44 0.107l0.053 0.027c0.093 0.040 0.2 0 0.267-0.080 0.040-0.093 0.133-0.187 0.227-0.267l0.333-0.227 0.32-0.2c0.133-0.093 0.32-0.133 0.48-0.133l0.48-0.040c0.187-0.027 0.347-0.16 0.4-0.347 0.053-0.2 0.133-0.4 0.267-0.573s0.267-0.32 0.4-0.453c0.173-0.133 0.347-0.2 0.533-0.213h0.107c0.213-0.040 0.373-0.24 0.36-0.453v-0.893c0.027-0.133 0.080-0.307 0.16-0.44l0.267-0.4 0.107-0.133c0.080-0.067 0.133-0.16 0.227-0.267l0.133-0.173c0.080-0.133 0.080-0.307-0.027-0.427-0.133-0.133-0.2-0.32-0.227-0.507v-0.053c-0.027-0.213-0.027-0.44 0.040-0.667v-0.067c0.067-0.173 0.16-0.347 0.267-0.507 0.107-0.133 0.093-0.32-0.040-0.427l-0.227-0.2c-0.187-0.16-0.293-0.4-0.32-0.64l-0.027-0.267c0-0.080 0-0.173-0.027-0.267l-0.027-0.2c-0.027-0.227-0.16-0.4-0.347-0.533l-0.093-0.027c-0.133-0.080-0.267-0.2-0.373-0.36-0.107-0.133-0.16-0.32-0.2-0.507l-0.040-0.227c0-0.080-0.053-0.133-0.133-0.173l-0.64-0.2c-0.133-0.027-0.267-0.133-0.36-0.227h-0.027c-0.080-0.107-0.213-0.107-0.293-0.027l-0.133 0.133c-0.027 0.040-0.053 0.053-0.093 0.040-0.080 0-0.133-0.067-0.107-0.133 0.027-0.213-0.053-0.427-0.227-0.56l-0.173-0.133-0.4-0.267c-0.107-0.040-0.267 0-0.32 0.133l-0.053 0.080c0 0.027-0.040 0.040-0.053 0.053-0.053 0-0.133 0-0.133-0.067l-0.040-0.067c-0.040-0.080-0.133-0.133-0.213-0.16zM16.133 17.427l-0.067-0.067c-0.067-0.053-0.133-0.040-0.2 0.027-0.093 0.16-0.173 0.333-0.213 0.507v0.027c-0.040 0.173-0.2 0.293-0.36 0.267h-0.16c-0.187 0-0.333 0.16-0.333 0.347 0 0.24-0.080 0.48-0.227 0.667l-0.080 0.080c-0.133 0.173-0.333 0.293-0.533 0.36l-0.107 0.027c-0.133 0.040-0.24 0.133-0.267 0.293 0 0.133-0.080 0.267-0.187 0.373l-0.133 0.107c-0.16 0.173-0.4 0.267-0.64 0.293l-0.667 0.067c-0.213 0-0.4 0.133-0.533 0.333s-0.333 0.333-0.533 0.36l-0.293 0.027c-0.213 0.027-0.44 0.027-0.667-0.027l-0.133-0.027-0.36-0.093c-0.133-0.040-0.24 0-0.32 0.093l-0.133 0.173c-0.173 0.2-0.427 0.293-0.667 0.267l-0.867-0.107c-0.133 0-0.24-0.067-0.36-0.133-0.133-0.080-0.227-0.173-0.32-0.267l-0.333-0.4c-0.040-0.027-0.107-0.040-0.173-0.027l-0.187 0.080-0.747 0.187c-0.133 0.040-0.307 0-0.44-0.080-0.133-0.107-0.293-0.133-0.453-0.133h-0.173c-0.16 0.040-0.267 0.213-0.213 0.373l0.053 0.267c0.040 0.133 0.027 0.293-0.040 0.427s-0.053 0.267 0.040 0.4l0.080 0.107c0.107 0.16 0.267 0.293 0.4 0.427s0.267 0.267 0.373 0.44l0.2 0.36c0.107 0.187 0.267 0.293 0.48 0.293 0.2 0 0.4 0.067 0.56 0.2l0.4 0.373c0.107 0.093 0.267 0.107 0.373 0.027l0.067-0.027c0.080 0 0.133 0.053 0.133 0.133v0.067c0 0.173 0.133 0.333 0.307 0.4l0.6 0.133c0.213 0.067 0.427 0.133 0.627 0.267h0.107c0.107 0 0.2-0.093 0.187-0.213v-0.467c0-0.133 0.053-0.267 0.16-0.32l0.067-0.027c0.067 0.027 0.133 0.080 0.107 0.133v0.227c0 0.173 0.053 0.333 0.173 0.453 0.133 0.133 0.307 0.16 0.453 0.107 0.16-0.067 0.32-0.080 0.493-0.067l0.493 0.027c0.24 0.027 0.467 0 0.667-0.093 0.24-0.080 0.44-0.187 0.627-0.333l0.080-0.053 0.4-0.36c0.133-0.133 0.307-0.2 0.467-0.2h0.533c0.267-0.027 0.507-0.267 0.533-0.533l0.053-0.267c0-0.173 0.080-0.333 0.2-0.467 0.133-0.133 0.267-0.213 0.4-0.267l0.16-0.067c0.227-0.093 0.4-0.293 0.48-0.533l0.080-0.32c0.067-0.267 0.2-0.533 0.4-0.707l0.027-0.027c0.16-0.133 0.187-0.4 0.080-0.587l-0.040-0.093c-0.093-0.133-0.107-0.333-0.040-0.507 0.067-0.187 0.133-0.347 0.24-0.507l0.133-0.187c0.053-0.107 0.053-0.267-0.027-0.36-0.080-0.107-0.133-0.24-0.133-0.373l-0.027-0.187v-0.453c0.027-0.133 0-0.307-0.040-0.44l-0.053-0.16zM14.227 16.413v-0.040c0-0.133-0.080-0.213-0.187-0.213h-0.347c-0.133 0.027-0.267 0.027-0.373 0h-0.6c-0.307 0-0.6-0.053-0.893-0.133l-0.32-0.080-0.267-0.080-0.6-0.2c-0.32-0.093-0.56-0.307-0.707-0.6l-0.067-0.133c-0.093-0.2-0.293-0.307-0.493-0.267-0.227 0-0.453 0-0.667-0.107l-0.16-0.067c-0.307-0.133-0.533-0.4-0.533-0.76l-0.053-0.36c-0.040-0.187-0.16-0.36-0.32-0.427-0.187-0.080-0.36-0.187-0.533-0.307l-0.067-0.040c-0.2-0.16-0.373-0.373-0.467-0.627l-0.027-0.080c-0.067-0.213-0.080-0.44-0.027-0.667l0.027-0.080c0.053-0.173 0.067-0.347 0.067-0.533 0-0.16-0.067-0.32-0.187-0.44l-0.187-0.173c-0.213-0.173-0.347-0.427-0.36-0.707-0.027-0.293-0.027-0.573 0.027-0.853v-0.080c0-0.16-0.133-0.267-0.267-0.267h-0.040c-0.173 0-0.32 0.107-0.4 0.267-0.067 0.187-0.173 0.333-0.293 0.48l-0.053 0.067-0.4 0.4c-0.133 0.133-0.213 0.333-0.24 0.533s-0.080 0.4-0.16 0.587l-0.027 0.067c-0.067 0.16-0.173 0.307-0.307 0.4-0.133 0.107-0.227 0.267-0.227 0.427l-0.027 0.613c0 0.267-0.040 0.533-0.133 0.8l-0.027 0.107c-0.067 0.173 0 0.36 0.16 0.44l0.56 0.24 0.053 0.027c0.040 0 0.053 0.027 0.067 0.067 0.040 0.053 0 0.133-0.040 0.133l-0.133 0.067c-0.080 0.027-0.133 0.107-0.16 0.2l-0.027 0.133v0.027l-0.133 0.747c-0.027 0.107-0.027 0.227-0.027 0.347 0 0.107 0.067 0.2 0.16 0.24l0.293 0.133c0.133 0.080 0.293 0.173 0.4 0.267l0.133 0.107c0.040 0.053 0.107 0.107 0.16 0.133l0.053 0.053c0.093 0.080 0.16 0.187 0.187 0.307l0.133 0.6c0 0.16 0.133 0.293 0.267 0.333l0.213 0.067c0 0 0.040 0 0.067 0.027l0.267 0.080c0.213 0.067 0.4 0.187 0.56 0.347 0.16 0.133 0.32 0.307 0.453 0.493l0.053 0.053c0.107 0.133 0.267 0.2 0.427 0.16s0.333-0.053 0.507-0.053h0.2c0.133 0 0.307 0.040 0.453 0.133 0.133 0.080 0.307 0.133 0.467 0.2h0.040c0.16 0.067 0.333 0.040 0.467-0.053 0.133-0.107 0.307-0.16 0.48-0.16l0.627 0.040c0.133 0 0.267-0.027 0.333-0.133h0.027l0.227-0.213 0.067-0.067c0.107-0.133 0.267-0.187 0.427-0.2h0.6c0.16 0 0.307-0.133 0.373-0.267s0.2-0.24 0.36-0.267l0.267-0.053c0.107 0 0.2-0.093 0.24-0.213 0.040-0.133 0.107-0.24 0.2-0.32l0.213-0.213c0.133-0.133 0.2-0.267 0.2-0.413z"></path>
</symbol>
<symbol id="icon-envelop" viewBox="0 0 32 32">
<path d="M29 4h-26c-1.65 0-3 1.35-3 3v20c0 1.65 1.35 3 3 3h26c1.65 0 3-1.35 3-3v-20c0-1.65-1.35-3-3-3zM12.461 17.199l-8.461 6.59v-15.676l8.461 9.086zM5.512 8h20.976l-10.488 7.875-10.488-7.875zM12.79 17.553l3.21 3.447 3.21-3.447 6.58 8.447h-19.579l6.58-8.447zM19.539 17.199l8.461-9.086v15.676l-8.461-6.59z"></path>
</symbol>
<symbol id="icon-instagram" viewBox="0 0 32 32">
<path d="M16 2.881c4.275 0 4.781 0.019 6.462 0.094 1.563 0.069 2.406 0.331 2.969 0.55 0.744 0.288 1.281 0.638 1.837 1.194 0.563 0.563 0.906 1.094 1.2 1.838 0.219 0.563 0.481 1.412 0.55 2.969 0.075 1.688 0.094 2.194 0.094 6.463s-0.019 4.781-0.094 6.463c-0.069 1.563-0.331 2.406-0.55 2.969-0.288 0.744-0.637 1.281-1.194 1.837-0.563 0.563-1.094 0.906-1.837 1.2-0.563 0.219-1.413 0.481-2.969 0.55-1.688 0.075-2.194 0.094-6.463 0.094s-4.781-0.019-6.463-0.094c-1.563-0.069-2.406-0.331-2.969-0.55-0.744-0.288-1.281-0.637-1.838-1.194-0.563-0.563-0.906-1.094-1.2-1.837-0.219-0.563-0.481-1.413-0.55-2.969-0.075-1.688-0.094-2.194-0.094-6.463s0.019-4.781 0.094-6.463c0.069-1.563 0.331-2.406 0.55-2.969 0.288-0.744 0.638-1.281 1.194-1.838 0.563-0.563 1.094-0.906 1.838-1.2 0.563-0.219 1.412-0.481 2.969-0.55 1.681-0.075 2.188-0.094 6.463-0.094zM16 0c-4.344 0-4.887 0.019-6.594 0.094-1.7 0.075-2.869 0.35-3.881 0.744-1.056 0.412-1.95 0.956-2.837 1.85-0.894 0.888-1.438 1.781-1.85 2.831-0.394 1.019-0.669 2.181-0.744 3.881-0.075 1.713-0.094 2.256-0.094 6.6s0.019 4.887 0.094 6.594c0.075 1.7 0.35 2.869 0.744 3.881 0.413 1.056 0.956 1.95 1.85 2.837 0.887 0.887 1.781 1.438 2.831 1.844 1.019 0.394 2.181 0.669 3.881 0.744 1.706 0.075 2.25 0.094 6.594 0.094s4.888-0.019 6.594-0.094c1.7-0.075 2.869-0.35 3.881-0.744 1.050-0.406 1.944-0.956 2.831-1.844s1.438-1.781 1.844-2.831c0.394-1.019 0.669-2.181 0.744-3.881 0.075-1.706 0.094-2.25 0.094-6.594s-0.019-4.887-0.094-6.594c-0.075-1.7-0.35-2.869-0.744-3.881-0.394-1.063-0.938-1.956-1.831-2.844-0.887-0.887-1.781-1.438-2.831-1.844-1.019-0.394-2.181-0.669-3.881-0.744-1.712-0.081-2.256-0.1-6.6-0.1v0z"></path>
<path d="M16 7.781c-4.537 0-8.219 3.681-8.219 8.219s3.681 8.219 8.219 8.219 8.219-3.681 8.219-8.219c0-4.537-3.681-8.219-8.219-8.219zM16 21.331c-2.944 0-5.331-2.387-5.331-5.331s2.387-5.331 5.331-5.331c2.944 0 5.331 2.387 5.331 5.331s-2.387 5.331-5.331 5.331z"></path>
<path d="M26.462 7.456c0 1.060-0.859 1.919-1.919 1.919s-1.919-0.859-1.919-1.919c0-1.060 0.859-1.919 1.919-1.919s1.919 0.859 1.919 1.919z"></path>
</symbol>
<symbol id="icon-telegram" viewBox="0 0 32 32">
<path d="M16 0c-8.838 0-16 7.162-16 16s7.162 16 16 16 16-7.163 16-16-7.163-16-16-16zM23.863 10.969l-2.625 12.369c-0.181 0.881-0.712 1.087-1.45 0.681l-4-2.956-1.919 1.869c-0.225 0.219-0.4 0.4-0.8 0.4-0.519 0-0.431-0.194-0.606-0.688l-1.363-4.475-3.956-1.231c-0.856-0.262-0.862-0.85 0.194-1.269l15.412-5.95c0.7-0.319 1.381 0.169 1.113 1.25z"></path>
</symbol>
<symbol id="icon-twitter" viewBox="0 0 32 32">
<path d="M32 7.075c-1.175 0.525-2.444 0.875-3.769 1.031 1.356-0.813 2.394-2.1 2.887-3.631-1.269 0.75-2.675 1.3-4.169 1.594-1.2-1.275-2.906-2.069-4.794-2.069-3.625 0-6.563 2.938-6.563 6.563 0 0.512 0.056 1.012 0.169 1.494-5.456-0.275-10.294-2.888-13.531-6.862-0.563 0.969-0.887 2.1-0.887 3.3 0 2.275 1.156 4.287 2.919 5.463-1.075-0.031-2.087-0.331-2.975-0.819 0 0.025 0 0.056 0 0.081 0 3.181 2.263 5.838 5.269 6.437-0.55 0.15-1.131 0.231-1.731 0.231-0.425 0-0.831-0.044-1.237-0.119 0.838 2.606 3.263 4.506 6.131 4.563-2.25 1.762-5.075 2.813-8.156 2.813-0.531 0-1.050-0.031-1.569-0.094 2.913 1.869 6.362 2.95 10.069 2.95 12.075 0 18.681-10.006 18.681-18.681 0-0.287-0.006-0.569-0.019-0.85 1.281-0.919 2.394-2.075 3.275-3.394z"></path>
</symbol>
<symbol id="icon-github" viewBox="0 0 32 32">
<path d="M16 0.395c-8.836 0-16 7.163-16 16 0 7.069 4.585 13.067 10.942 15.182 0.8 0.148 1.094-0.347 1.094-0.77 0-0.381-0.015-1.642-0.022-2.979-4.452 0.968-5.391-1.888-5.391-1.888-0.728-1.849-1.776-2.341-1.776-2.341-1.452-0.993 0.11-0.973 0.11-0.973 1.606 0.113 2.452 1.649 2.452 1.649 1.427 2.446 3.743 1.739 4.656 1.33 0.143-1.034 0.558-1.74 1.016-2.14-3.554-0.404-7.29-1.777-7.29-7.907 0-1.747 0.625-3.174 1.649-4.295-0.166-0.403-0.714-2.030 0.155-4.234 0 0 1.344-0.43 4.401 1.64 1.276-0.355 2.645-0.532 4.005-0.539 1.359 0.006 2.729 0.184 4.008 0.539 3.054-2.070 4.395-1.64 4.395-1.64 0.871 2.204 0.323 3.831 0.157 4.234 1.026 1.12 1.647 2.548 1.647 4.295 0 6.145-3.743 7.498-7.306 7.895 0.574 0.497 1.085 1.47 1.085 2.963 0 2.141-0.019 3.864-0.019 4.391 0 0.426 0.288 0.925 1.099 0.768 6.354-2.118 10.933-8.113 10.933-15.18 0-8.837-7.164-16-16-16z"></path>
</symbol>
<symbol id="icon-linkedin2" viewBox="0 0 32 32">
<path d="M12 12h5.535v2.837h0.079c0.77-1.381 2.655-2.837 5.464-2.837 5.842 0 6.922 3.637 6.922 8.367v9.633h-5.769v-8.54c0-2.037-0.042-4.657-3.001-4.657-3.005 0-3.463 2.218-3.463 4.509v8.688h-5.767v-18z"></path>
<path d="M2 12h6v18h-6v-18z"></path>
<path d="M8 7c0 1.657-1.343 3-3 3s-3-1.343-3-3c0-1.657 1.343-3 3-3s3 1.343 3 3z"></path>
</symbol>
</defs>
</svg>
